<svg id="Layer_1" data-name="Layer 1" xmlns="http://www.w3.org/2000/svg" viewBox="0 0 454.67 453"><defs><style>.cls-1{fill:#fff;}</style></defs><title>clapboard_1</title><path d="M817,209h3c3.41,14.39,6.81,28.77,10.37,43.79L446.72,342.13l.16,1.17H842.67v44.5l-8.64.62V645.91c0,12.75-3.31,16.09-15.88,16.09H407.66c-10.22,0-14.18-3.91-14.4-14.16,0-1.67,0-3.33,0-5V390H388V302c8.33,0,16.66.14,25,.09a42.54,42.54,0,0,0,9.32-.64Q606,258.8,789.57,216C798.75,213.83,807.86,211.33,817,209ZM507.5,384.29l1.14,1.46c.61.06,1.21.16,1.82.16,17.48,0,34.95.09,52.43-.1a8.93,8.93,0,0,0,5.48-2.55c11.77-11.53,23.39-23.21,35-34.86.76-.77,1.39-1.66,2.51-3-1.27-.12-1.87-.23-2.48-.23-17.47,0-35-.1-52.42.13-2,0-4.34,1.45-5.85,2.92-11,10.69-21.72,21.59-32.61,32.34A41.86,41.86,0,0,1,507.5,384.29Zm-13.44-97.2c16.54,10.28,31.77,19.82,47.13,29.13,1.44.87,3.86.64,5.67.25,9.11-2,18.17-4.19,27.26-6.31l25.64-6c-11.49-7.16-22.53-12.86-32.19-20.34-11.15-8.63-22.11-10.4-35.44-5.93C520.22,281.92,507.63,283.91,494.06,287.09Zm227,58.08c-18.79,0-36-.05-53.27.11-1.37,0-2.95,1.34-4.06,2.44Q646,365.26,628.39,383a25.76,25.76,0,0,0-2.12,3c17.66,0,34.62,0,51.59-.06a6.22,6.22,0,0,0,3.92-1.58C694.56,371.67,707.24,359,721.06,345.17ZM609,260.34c16.58,10.32,31.9,19.93,47.35,29.32,1.29.79,3.52.51,5.19.14,9.57-2.13,19.1-4.44,28.64-6.68l20.09-4.7c-.78-.9-1-1.35-1.38-1.57q-22.2-13.87-44.45-27.66a5.63,5.63,0,0,0-3.68-.89C643.92,252.13,627.12,256.1,609,260.34Zm230.25,84.82c-18.1,0-34.69-.08-51.28.13-1.66,0-3.57,1.52-4.89,2.82-11.61,11.45-23.11,23-34.62,34.54a38.39,38.39,0,0,0-2.54,3.27c17.15,0,33.45,0,49.74-.06a6.2,6.2,0,0,0,4-1.35C812.59,371.81,825.38,359,839.25,345.16ZM725.57,233.22c15,9.31,28.79,17.62,42.27,26.45A15.9,15.9,0,0,0,781.75,262c14.28-3.66,28.69-6.81,43.35-10.23-.57-.8-.76-1.31-1.12-1.53q-22.44-14-44.93-28a4.82,4.82,0,0,0-3.22-.73C759.46,225.27,743.12,229.11,725.57,233.22ZM547.16,571v6.37q0,31.23,0,62.48c0,4.11.05,4.11,4.13,3.68V571.37H681v72.54c4.58,1.14,3.82-1.84,3.82-4q0-31.49,0-63V571h6.39q56.47,0,113-.08c1.44,0,2.88-1.18,4.32-1.81-1.38-.7-2.73-1.44-4.14-2.06a3.89,3.89,0,0,0-1.49,0H427.48a7.24,7.24,0,0,0-2.47.06,16.4,16.4,0,0,0-2.85,1.83c.87.69,1.64,1.72,2.63,2a15,15,0,0,0,4,.09h118.4ZM615,431q-93.46,0-186.94.07c-2,0-5.68,1.27-5.64,1.71.34,4.17,3.82,2.08,5.78,2.08q187.2.18,374.39.11a13,13,0,0,0,3.48-.09,8.89,8.89,0,0,0,2.44-1.73c-.86-.71-1.62-1.8-2.59-2.05a19.08,19.08,0,0,0-4.48-.1Zm1,88.85H428.54a13,13,0,0,0-3.48.08,12.22,12.22,0,0,0-2.9,1.73,15.64,15.64,0,0,0,3.06,2.14,8.63,8.63,0,0,0,3,.07H802.62a9.85,9.85,0,0,0,3-.07,13.89,13.89,0,0,0,2.92-1.79c-1-.72-1.95-1.77-3.08-2.06a18.46,18.46,0,0,0-4.47-.1ZM484.94,331c-16.44-10.24-31.64-19.74-46.87-29.16a5,5,0,0,0-3.23-.84c-5.3,1.07-10.56,2.36-16.44,3.72,8,11.78,15.56,22.9,23.25,33.9a4.37,4.37,0,0,0,3.66,1.4C458.1,337.23,470.84,334.25,484.94,331ZM616,474.51q-93.5,0-187,.08c-2.28,0-4.56,1.23-6.85,1.89,2.28.65,4.56,1.87,6.84,1.87q186.74.13,373.48.08a10.81,10.81,0,0,0,3.47-.1c1-.35,1.73-1.38,2.59-2.12-.85-.55-1.65-1.46-2.56-1.6a38.58,38.58,0,0,0-5.49-.09Zm-157.69-102,27.21-27H446.6C451.47,355,461.41,361.79,458.31,372.55Zm-57.46,8,2,0c1.23-1.83,3.42-3.68,3.37-5.47,0-1.47-2.72-4-4.26-4s-4.29,2.41-4.37,3.88C397.53,376.78,399.67,378.69,400.85,380.55Zm9.66-65.79c-3.14-2.16-5-4.38-6.68-4.31-1.57.06-3,2.62-4.54,4.07,1.55,1.56,2.91,4,4.71,4.39C405.38,319.21,407.32,316.91,410.51,314.76ZM443,369c-2.16,2.7-4.66,4.5-4.44,5.86.31,1.85,2.69,3.35,4.18,5,1.56-1.58,4-3,4.39-4.81C447.43,373.74,445,371.83,443,369Z" transform="translate(-388 -209)"/><path class="cls-1" d="M507.5,384.29a41.86,41.86,0,0,0,5.06-3.74c10.89-10.75,21.65-21.65,32.61-32.34,1.51-1.47,3.87-2.9,5.85-2.92,17.47-.23,35-.14,52.42-.13.61,0,1.21.11,2.48.23-1.12,1.35-1.75,2.24-2.51,3-11.65,11.65-23.27,23.33-35,34.86a8.93,8.93,0,0,1-5.48,2.55c-17.48.19-34.95.11-52.43.1-.61,0-1.21-.1-1.82-.16Z" transform="translate(-388 -209)"/><path class="cls-1" d="M494.06,287.09c13.57-3.18,26.16-5.17,38.07-9.17,13.33-4.47,24.29-2.7,35.44,5.93,9.66,7.48,20.7,13.18,32.19,20.34l-25.64,6c-9.09,2.12-18.15,4.33-27.26,6.31-1.81.39-4.23.62-5.67-.25C525.83,306.91,510.6,297.37,494.06,287.09Z" transform="translate(-388 -209)"/><path class="cls-1" d="M721.06,345.17c-13.82,13.8-26.5,26.5-39.28,39.11a6.22,6.22,0,0,1-3.92,1.58c-17,.1-33.93.06-51.59.06a25.76,25.76,0,0,1,2.12-3q17.63-17.67,35.34-35.24c1.11-1.1,2.69-2.43,4.06-2.44C685,345.12,702.27,345.17,721.06,345.17Z" transform="translate(-388 -209)"/><path class="cls-1" d="M609,260.34c18.12-4.24,34.92-8.21,51.76-12a5.63,5.63,0,0,1,3.68.89q22.27,13.76,44.45,27.66c.37.22.6.67,1.38,1.57l-20.09,4.7c-9.54,2.24-19.07,4.55-28.64,6.68-1.67.37-3.9.65-5.19-.14C640.9,280.27,625.58,270.66,609,260.34Z" transform="translate(-388 -209)"/><path class="cls-1" d="M839.25,345.16c-13.87,13.83-26.66,26.65-39.57,39.35a6.2,6.2,0,0,1-4,1.35c-16.29.1-32.59.06-49.74.06a38.39,38.39,0,0,1,2.54-3.27c11.51-11.54,23-23.09,34.62-34.54,1.32-1.3,3.23-2.8,4.89-2.82C804.56,345.08,821.15,345.16,839.25,345.16Z" transform="translate(-388 -209)"/><path class="cls-1" d="M725.57,233.22c17.55-4.11,33.89-7.95,50.26-11.69a4.82,4.82,0,0,1,3.22.73q22.51,13.91,44.93,28c.36.22.55.73,1.12,1.53-14.66,3.42-29.07,6.57-43.35,10.23a15.9,15.9,0,0,1-13.91-2.33C754.36,250.84,740.53,242.53,725.57,233.22Z" transform="translate(-388 -209)"/><path class="cls-1" d="M547.16,571H428.76a15,15,0,0,1-4-.09c-1-.28-1.76-1.31-2.63-2a16.4,16.4,0,0,1,2.85-1.83,7.24,7.24,0,0,1,2.47-.06h375.4a3.89,3.89,0,0,1,1.49,0c1.41.62,2.76,1.36,4.14,2.06-1.44.63-2.88,1.81-4.32,1.81q-56.49.15-113,.08h-6.39v5.91q0,31.49,0,63c0,2.19.76,5.17-3.82,4V571.37H551.31v72.15c-4.08.43-4.13.43-4.13-3.68q0-31.25,0-62.48Z" transform="translate(-388 -209)"/><path class="cls-1" d="M615,431H801.45a19.08,19.08,0,0,1,4.48.1c1,.25,1.73,1.34,2.59,2.05a8.89,8.89,0,0,1-2.44,1.73,13,13,0,0,1-3.48.09q-187.2,0-374.39-.11c-2,0-5.44,2.09-5.78-2.08,0-.44,3.67-1.7,5.64-1.71Q521.54,430.91,615,431Z" transform="translate(-388 -209)"/><path class="cls-1" d="M616,519.82H801a18.46,18.46,0,0,1,4.47.1c1.13.29,2.06,1.34,3.08,2.06a13.89,13.89,0,0,1-2.92,1.79,9.85,9.85,0,0,1-3,.07H428.19a8.63,8.63,0,0,1-3-.07,15.64,15.64,0,0,1-3.06-2.14,12.22,12.22,0,0,1,2.9-1.73,13,13,0,0,1,3.48-.08Z" transform="translate(-388 -209)"/><path class="cls-1" d="M484.94,331c-14.1,3.25-26.84,6.23-39.63,9a4.37,4.37,0,0,1-3.66-1.4c-7.69-11-15.21-22.12-23.25-33.9,5.88-1.36,11.14-2.65,16.44-3.72a5,5,0,0,1,3.23.84C453.3,311.26,468.5,320.76,484.94,331Z" transform="translate(-388 -209)"/><path class="cls-1" d="M616,474.51H800.49a38.58,38.58,0,0,1,5.49.09c.91.14,1.71,1.05,2.56,1.6-.86.74-1.6,1.77-2.59,2.12a10.81,10.81,0,0,1-3.47.1q-186.73,0-373.48-.08c-2.28,0-4.56-1.22-6.84-1.87,2.29-.66,4.57-1.88,6.85-1.89Q522.51,474.44,616,474.51Z" transform="translate(-388 -209)"/><path class="cls-1" d="M458.31,372.55c3.1-10.76-6.84-17.54-11.71-27h38.92Z" transform="translate(-388 -209)"/><path class="cls-1" d="M400.85,380.55c-1.18-1.86-3.32-3.77-3.23-5.56.08-1.47,2.83-3.9,4.37-3.88s4.22,2.53,4.26,4c.05,1.79-2.14,3.64-3.37,5.47Z" transform="translate(-388 -209)"/><path class="cls-1" d="M410.51,314.76c-3.19,2.15-5.13,4.45-6.51,4.15-1.8-.39-3.16-2.83-4.71-4.39,1.51-1.45,3-4,4.54-4.07C405.55,310.38,407.37,312.6,410.51,314.76Z" transform="translate(-388 -209)"/><path class="cls-1" d="M443,369c2,2.79,4.41,4.7,4.13,6-.39,1.83-2.83,3.23-4.39,4.81-1.49-1.65-3.87-3.15-4.18-5C438.36,373.54,440.86,371.74,443,369Z" transform="translate(-388 -209)"/></svg>